<svg id="Layer_1" data-name="Layer 1" xmlns="http://www.w3.org/2000/svg" viewBox="0 0 512 351.34"><defs><style>.cls-1{fill:#fff;}</style></defs><path class="cls-1" d="M334.15,358.91a29.64,29.64,0,1,0,29.64-29.64A29.68,29.68,0,0,0,334.15,358.91Zm43.11,0a13.47,13.47,0,1,1-13.47-13.47A13.49,13.49,0,0,1,377.26,358.91Z" transform="translate(0 -80.33)"/><path class="cls-1" d="M137.43,329.27a29.65,29.65,0,1,0,29.64,29.64A29.68,29.68,0,0,0,137.43,329.27Zm0,43.12a13.48,13.48,0,1,1,13.48-13.48A13.49,13.49,0,0,1,137.43,372.39Z" transform="translate(0 -80.33)"/><path class="cls-1" d="M503.92,167.59H473.31a39.24,39.24,0,0,1-5.81-7c-2.65-3.85-5.4-7.84-15.22-15.24-4.63-3.48-10-5.88-15.6-8.42a97.31,97.31,0,0,1-14-7.21,82.36,82.36,0,0,1-10-8.34c-4.87-4.5-9.89-9.15-16.22-12.68s-12.84-5.25-19.28-7a95.6,95.6,0,0,1-12.63-4,98.4,98.4,0,0,1-11.18-6.07c-6-3.6-12.25-7.33-19.42-9.19-8.79-2.29-17.56-1.62-25.29-1-3.38.26-6.57.5-9.59.5a56.59,56.59,0,0,1-7.5-.73c-5.28-.75-11.28-1.6-17.2.37-6.31,2.11-10.65,6.47-14.48,10.33a45.64,45.64,0,0,1-5.05,4.63,48.1,48.1,0,0,1-6.64,3.71c-4.54,2.24-9.68,4.79-13.56,9.34s-5.58,9.79-7.12,14.46a39.14,39.14,0,0,1-2.77,7,44.92,44.92,0,0,1-5.84,7.18c-3.14,3.37-6.38,6.86-8.28,11.33-3.36,7.93-3.36,11.93-3,16.34.05.61.09,1.18.11,1.76H183.89l-30-30a8.09,8.09,0,0,0-5.72-2.37H40.42a8.09,8.09,0,0,0-8.09,8.09v24.25H18.86a8.08,8.08,0,0,0-8.08,8.08v24.26H8.08A8.08,8.08,0,0,0,0,208v150.9A8.09,8.09,0,0,0,8.08,367H65.13a72.73,72.73,0,0,0,26.64,48.5h-19a8.09,8.09,0,1,0,0,16.17h355.7a8.09,8.09,0,1,0,0-16.17h-19a72.69,72.69,0,0,0-19.08-124.3l105.15-32.35a8.08,8.08,0,0,0,5.7-7.73v-35h2.7A8.08,8.08,0,0,0,512,208V175.67A8.08,8.08,0,0,0,503.92,167.59ZM225.56,155.8c.79-1.85,2.95-4.18,5.23-6.64a58.1,58.1,0,0,0,7.92-10,49.86,49.86,0,0,0,4.2-10.12c1.18-3.57,2.3-7,4.08-9.05s5-3.63,8.42-5.33a60.51,60.51,0,0,0,9-5.12,60.42,60.42,0,0,0,7-6.31c2.81-2.83,5.46-5.5,8.13-6.39,2.31-.77,6-.25,9.82.3a70.42,70.42,0,0,0,9.77.89c3.62,0,7.28-.28,10.81-.55,7.1-.54,13.81-1,20,.56,4.93,1.28,9.91,4.26,15.19,7.41a112.11,112.11,0,0,0,13.08,7.05,108.82,108.82,0,0,0,14.8,4.79c5.75,1.56,11.18,3,15.64,5.52,4.64,2.59,8.75,6.4,13.11,10.43a96.15,96.15,0,0,0,12,10,112.55,112.55,0,0,0,16.27,8.46c4.79,2.16,9.32,4.19,12.5,6.59,5.89,4.43,8.29,6.94,10.07,9.29H224c0-1.17-.09-2.19-.16-3.08C223.59,162.14,223.48,160.7,225.56,155.8ZM27,183.76H43.12v16.16H27Zm5.39,167.07H16.17V334.66H32.34v16.17Zm0-32.34H16.17V302.33H32.34v16.16Zm0-32.33H16.17V270H32.34v16.17Zm32.33,8.08v56.59H48.51V261.9a8.09,8.09,0,0,0-8.09-8.08H16.17V216.09H130.29l8.76,70.07H72.76A8.08,8.08,0,0,0,64.67,294.24Zm-5.39-94.32V183.76H75.45v16.16Zm32.34,0V183.76h16.17v16.16Zm32.34,0V183.76h10.12L160,209.63l10.85,84.67a72.39,72.39,0,0,0-15.17-5.84L145.45,207a8.08,8.08,0,0,0-8-7.09ZM91.77,302.32a73.82,73.82,0,0,0-10.93,10.93V302.32ZM137.43,415.5A56.59,56.59,0,1,1,194,358.91,56.65,56.65,0,0,1,137.43,415.5Zm45.66,0A72.69,72.69,0,0,0,209.73,367h81.76a72.73,72.73,0,0,0,26.64,48.5Zm27.1-64.67V313.1H291v37.73Zm210.19,8.08a56.59,56.59,0,1,1-56.59-56.58A56.65,56.65,0,0,1,420.38,358.91Zm64.67-113.76L305.7,300.34a8.05,8.05,0,0,0-6.58-3.41h-97A8.09,8.09,0,0,0,194,305v2.69s-5.05-.1-5.23-.28l-11.7-91.34h308v29.06Zm10.78-45.23H173.12l-30-30a8.12,8.12,0,0,0-5.72-2.36H48.51V151.42h96.35l30,30a8.12,8.12,0,0,0,5.72,2.37H495.83v16.16Z" transform="translate(0 -80.33)"/><path class="cls-1" d="M234.44,259.21H363.79a8.09,8.09,0,0,0,0-16.17H234.44a8.09,8.09,0,0,0,0,16.17Z" transform="translate(0 -80.33)"/></svg>