<svg height="480pt" viewBox="0 -72 480.0183 480" width="480pt" xmlns="http://www.w3.org/2000/svg"><path d="m88 224.007812c-22.09375 0-40 17.910157-40 40 0 22.09375 17.90625 40 40 40 22.089844 0 40-17.90625 40-40-.027344-22.078124-17.921875-39.972656-40-40zm0 64c-13.253906 0-24-10.742187-24-24 0-13.253906 10.746094-24 24-24s24 10.746094 24 24c0 13.257813-10.746094 24-24 24zm0 0"/><path d="m376 224.007812c-22.09375 0-40 17.910157-40 40 0 22.09375 17.90625 40 40 40 22.089844 0 40-17.90625 40-40-.027344-22.078124-17.921875-39.972656-40-40zm0 64c-13.253906 0-24-10.742187-24-24 0-13.253906 10.746094-24 24-24s24 10.746094 24 24c0 13.257813-10.746094 24-24 24zm0 0"/><path d="m184 240.007812h72c3.664062-.003906 6.859375-2.5 7.75-6.054687l54.496094-217.945313h73.753906c4.417969 0 8-3.582031 8-8 0-4.417968-3.582031-7.9999995-8-7.9999995h-80c-3.671875 0-6.871094 2.4960935-7.761719 6.0585935l-8.488281 33.941406h-271.75c-3.671875 0-6.871094 2.496094-7.761719 6.058594l-16 64c-.8125 3.25.488281 6.664063 3.257813 8.550782l176 120c1.328125.90625 2.894531 1.390624 4.503906 1.390624zm65.75-16h-63.277344l-169.363281-115.46875 13.136719-52.53125h261.503906zm0 0"/><path d="m213.933594 207.738281c.675781.179688 1.367187.269531 2.066406.269531 3.621094 0 6.792969-2.433593 7.726562-5.933593l32-120c.792969-2.78125.023438-5.769531-2.007812-7.824219-2.035156-2.054688-5.019531-2.851562-7.804688-2.085938-2.785156.765626-4.945312 2.976563-5.644531 5.78125l-32 120c-1.136719 4.269532 1.398438 8.652344 5.664063 9.792969zm0 0"/><path d="m170.015625 192.296875c4.265625 1.140625 8.652344-1.394531 9.792969-5.664063l27.917968-104.558593c1.054688-4.238281-1.480468-8.539063-5.699218-9.664063-4.214844-1.128906-8.558594 1.335938-9.757813 5.535156l-27.925781 104.558594c-1.140625 4.273438 1.402344 8.65625 5.671875 9.792969zm0 0"/><path d="m129.136719 165.664062c.671875.175782 1.367187.269532 2.0625.273438 3.621093 0 6.789062-2.429688 7.726562-5.929688l20.800781-77.917968c1.054688-4.238282-1.480468-8.539063-5.699218-9.664063-4.214844-1.128906-8.558594 1.335938-9.757813 5.535157l-20.796875 77.921874c-1.136718 4.265626 1.398438 8.640626 5.664063 9.78125zm0 0"/><path d="m88.253906 139.015625c.675782.183594 1.375.277344 2.074219.28125 3.621094-.003906 6.789063-2.441406 7.71875-5.945313l13.679687-51.277343c1.054688-4.238281-1.480468-8.539063-5.699218-9.664063-4.214844-1.128906-8.558594 1.335938-9.757813 5.535156l-13.679687 51.28125c-1.136719 4.265626 1.398437 8.648438 5.664062 9.789063zm0 0"/><path d="m47.375 112.296875c4.269531 1.140625 8.652344-1.394531 9.792969-5.664063l6.558593-24.558593c.792969-2.78125.023438-5.769531-2.007812-7.824219-2.035156-2.054688-5.019531-2.851562-7.804688-2.085938-2.785156.765626-4.945312 2.976563-5.644531 5.78125l-6.558593 24.558594c-1.140626 4.269532 1.394531 8.652344 5.664062 9.792969zm0 0"/><path d="m448 112.007812h-25.441406l-14.71875-73.597656c-.761719-3.726562-4.039063-6.402344-7.839844-6.402344h-64v.160157c-1.648438-.003907-3.257812.46875-4.640625 1.359375-.417969.324218-.820313.671875-1.199219 1.042968-.960937.96875-1.625 2.1875-1.921875 3.519532l-54.480469 217.917968h-114.230468c-4.246094-37.96875-37.410156-66.011718-75.5625-63.886718-38.148438 2.125-67.992188 33.679687-67.992188 71.886718 0 38.210938 29.84375 69.765626 67.992188 71.890626 38.152344 2.125 71.316406-25.917969 75.5625-63.890626h144.945312c4.179688 36.339844 34.945313 63.769532 71.527344 63.769532 36.578125 0 67.34375-27.429688 71.527344-63.769532h8.472656c11.445312.28125 21.40625-7.785156 23.519531-19.039062.078125-.480469.160157-.878906.238281-1.359375.082032-.480469.082032-.960937.160157-1.441406.066406-.714844.09375-1.4375.082031-2.160157v-104c.300781-8.574218-2.972656-16.890624-9.039062-22.960937-6.070313-6.066406-14.386719-9.339844-22.960938-9.039063zm-360 208c-30.929688 0-56-25.070312-56-56 0-30.925781 25.070312-56 56-56 30.925781 0 56 25.074219 56 56-.035156 30.914063-25.085938 55.964844-56 56zm305.4375-272 6.402344 32h-23.839844v-32zm-17.4375 272c-30.929688 0-56-25.070312-56-56 0-30.925781 25.070312-56 56-56 30.925781 0 56 25.074219 56 56-.035156 30.914063-25.085938 55.964844-56 56zm88-72c.15625 2.167969-.636719 4.292969-2.171875 5.828126-1.535156 1.539062-3.664063 2.328124-5.828125 2.171874h-8.472656c-4.183594-36.339843-34.949219-63.769531-71.527344-63.769531-36.582031 0-67.347656 27.429688-71.527344 63.769531h-14.234375l20-80 .082031-.320312c.550782.148438 1.113282.253906 1.679688.320312h101.039062l50.960938 43.679688zm0-49.359374-42.800781-36.71875c-1.457031-1.226563-3.296875-1.90625-5.199219-1.921876h-101.761719l28-112h17.761719v40c0 4.417969 3.582031 8 8 8h35.039062l5.121094 25.601563c.757813 3.726563 4.035156 6.402344 7.839844 6.398437h32c4.339844-.34375 8.609375 1.234376 11.691406 4.3125 3.078125 3.078126 4.652344 7.347657 4.308594 11.6875zm0 0"/></svg>