<svg id="Layer_1" data-name="Layer 1" xmlns="http://www.w3.org/2000/svg" viewBox="0 0 640 640"><defs><style>.cls-1{fill:#fff;}</style></defs><g id="surface1"><path class="cls-1" d="M373.34,213.34H327a10.64,10.64,0,0,0-7.54,3.12l-81.68,81.67a10.73,10.73,0,0,0-3.13,7.54v25a10.67,10.67,0,0,0,10.67,10.66h128A10.66,10.66,0,0,0,384,330.67V224A10.66,10.66,0,0,0,373.34,213.34ZM362.66,320H256v-9.91l75.43-75.42h31.23Z" transform="translate(0 0)"/><path class="cls-1" d="M373.34,522.66A42.67,42.67,0,1,0,416,565.33,42.67,42.67,0,0,0,373.34,522.66Zm0,64a21.33,21.33,0,1,1,21.33-21.33A21.33,21.33,0,0,1,373.34,586.66Z" transform="translate(0 0)"/><path class="cls-1" d="M501.33,522.66A42.67,42.67,0,1,0,544,565.33,42.67,42.67,0,0,0,501.33,522.66Zm0,64a21.33,21.33,0,1,1,21.33-21.33A21.33,21.33,0,0,1,501.33,586.66Z" transform="translate(0 0)"/><path class="cls-1" d="M245.33,522.66A42.67,42.67,0,1,0,288,565.33,42.68,42.68,0,0,0,245.33,522.66Zm0,64a21.33,21.33,0,1,1,21.33-21.33A21.33,21.33,0,0,1,245.33,586.66Z" transform="translate(0 0)"/><path class="cls-1" d="M629.33,448A10.67,10.67,0,0,0,640,437.34V330.67A10.66,10.66,0,0,0,629.33,320H426.66V181.33A10.67,10.67,0,0,0,416,170.66H309.33a10.71,10.71,0,0,0-7.54,3.13l-24.45,24.46L82.21,3.12A10.7,10.7,0,0,0,74.67,0h-64A10.66,10.66,0,0,0,0,10.67V373.34a10.66,10.66,0,0,0,4.75,8.87l96,64a10.66,10.66,0,0,0,14.79-3,10.51,10.51,0,0,0,1.47-3.32l32-128,10.66-42.66A10.67,10.67,0,0,0,139,264.07l-8.64,34.6H55.09L82,123.55l135,135-21.89,21.9A10.67,10.67,0,0,0,192,288V426.66H181.33a10.68,10.68,0,0,0-10.67,10.68v54.18A74.67,74.67,0,0,0,181.33,640h384A74.67,74.67,0,0,0,576,491.52V448ZM618.67,341.33v85.33h-192V341.33ZM100,420.06,21.33,367.62V320H125ZM82.21,93.58a10.65,10.65,0,0,0-15.08-.08,10.51,10.51,0,0,0-3,6L33.52,298.67H21.33V21.33H70.25l192,192-30.14,30.14ZM213.34,292.42l26.31-26.32,45.23-45.23L313.75,192h91.58V426.66h-192ZM618.67,565.33a53.42,53.42,0,0,1-53.34,53.34h-384a53.34,53.34,0,0,1,0-106.67h384A53.41,53.41,0,0,1,618.67,565.33Zm-64-74.67H192V448H554.67Z" transform="translate(0 0)"/></g></svg>